<?xml version="1.0" encoding="UTF-8"?>
<svg id="Layer_1" data-name="Layer 1" xmlns="http://www.w3.org/2000/svg" viewBox="0 0 720 720">
  <defs>
    <style>
      .cls-1 {
        fill: #a99370;
        stroke-width: 0px;
      }
    </style>
  </defs>
  <path class="cls-1" d="M670.7,360c-2.93,2.93-7.68,2.93-10.61,0L379.92,79.83c-10.98-10.99-28.86-10.99-39.85,0L59.91,360c-2.93,2.93-7.68,2.93-10.61,0h0c-2.93-2.93-2.93-7.68,0-10.61L329.47,69.23c16.83-16.83,44.22-16.83,61.06,0l280.17,280.17c2.93,2.93,2.93,7.68,0,10.61h0Z"/>
  <path class="cls-1" d="M532.43,674.55h-56.86c-28.2,0-51.07-22.86-51.07-51.07v-163.18c0-19.92-16.15-36.07-36.07-36.07h-56.86c-19.92,0-36.07,16.15-36.07,36.07v163.18c0,28.2-22.86,51.07-51.07,51.07h-56.86c-28.2,0-51.07-22.86-51.07-51.07v-297.99c0-4.14,3.36-7.5,7.5-7.5h0c4.14,0,7.5,3.36,7.5,7.5v297.99c0,19.92,16.15,36.07,36.07,36.07h56.86c19.92,0,36.07-16.15,36.07-36.07v-163.18c0-28.2,22.86-51.07,51.07-51.07h56.86c28.2,0,51.07,22.86,51.07,51.07v163.18c0,19.92,16.15,36.07,36.07,36.07h56.86c19.92,0,36.07-16.15,36.07-36.07v-297.99c0-4.14,3.36-7.5,7.5-7.5h0c4.14,0,7.5,3.36,7.5,7.5v297.99c0,28.2-22.86,51.07-51.07,51.07Z"/>
</svg>